<?xml version="1.0" standalone="no"?>
<!DOCTYPE svg PUBLIC "-//W3C//DTD SVG 20010904//EN"
 "http://www.w3.org/TR/2001/REC-SVG-20010904/DTD/svg10.dtd">
<svg version="1.0" xmlns="http://www.w3.org/2000/svg"
 width="450.000000pt" height="450.000000pt" viewBox="0 0 450.000000 450.000000"
 preserveAspectRatio="xMidYMid meet">

<g transform="translate(0.000000,450.000000) scale(0.100000,-0.100000)"
fill="#c4c4c4" stroke="none">
<path d="M736 4040 c-15 -5 -37 -17 -47 -26 -26 -23 -25 -78 1 -104 19 -19 29
-20 113 -15 126 8 134 11 153 46 13 26 13 36 3 60 -6 17 -20 34 -30 39 -22 12
-153 12 -193 0z"/>
<path d="M1145 4025 c-14 -13 -25 -36 -25 -50 0 -14 11 -37 25 -50 22 -23 31
-25 125 -25 94 0 103 2 125 25 32 31 32 69 0 100 -22 23 -31 25 -125 25 -94 0
-103 -2 -125 -25z"/>
<path d="M1612 4043 c-7 -3 -19 -18 -28 -35 -13 -25 -13 -35 -3 -59 17 -42 36
-49 143 -49 111 0 122 3 142 42 13 25 13 35 3 59 -6 17 -20 34 -30 39 -18 10
-204 13 -227 3z"/>
<path d="M2055 4025 c-14 -13 -25 -36 -25 -50 0 -14 11 -37 25 -50 22 -23 31
-25 125 -25 94 0 103 2 125 25 32 31 32 69 0 100 -22 23 -31 25 -125 25 -94 0
-103 -2 -125 -25z"/>
<path d="M2481 3934 c-27 -35 -26 -54 4 -95 14 -19 36 -57 49 -84 37 -78 98
-93 140 -33 22 31 20 44 -13 113 -56 118 -133 159 -180 99z"/>
<path d="M493 3815 c-29 -20 -43 -73 -43 -163 0 -64 3 -76 25 -97 30 -31 69
-32 99 -2 20 20 24 37 29 127 6 98 5 106 -15 127 -25 27 -64 30 -95 8z"/>
<path d="M2571 3504 c-18 -23 -21 -41 -21 -126 0 -92 2 -101 25 -123 13 -14
36 -25 50 -25 14 0 37 11 50 25 23 22 25 31 25 123 0 85 -3 103 -21 126 -15
19 -30 26 -54 26 -24 0 -39 -7 -54 -26z"/>
<path d="M493 3370 c-35 -14 -43 -42 -43 -148 0 -90 2 -100 23 -120 33 -31 80
-29 106 4 18 23 21 41 21 126 0 92 -2 101 -25 123 -25 26 -45 30 -82 15z"/>
<path d="M2590 3063 c-19 -9 -56 -16 -82 -18 -84 -4 -154 -44 -194 -110 l-24
-40 -68 -1 c-109 -1 -187 -52 -227 -147 -13 -31 -19 -35 -64 -40 -117 -14
-211 -108 -211 -210 0 -31 -4 -35 -41 -46 -22 -7 -58 -28 -80 -48 -113 -102
-111 -251 5 -363 41 -39 46 -49 46 -88 l0 -43 -26 20 c-21 16 -41 21 -88 21
-34 0 -69 -6 -78 -14 -39 -30 -40 -92 0 -122 28 -22 135 -18 164 6 l25 19 5
-102 c5 -123 34 -196 103 -267 l44 -45 3 -345 3 -345 28 -60 c37 -79 114 -156
191 -192 l61 -28 840 0 840 0 61 28 c77 36 154 113 191 192 l28 60 0 840 0
840 -28 60 c-37 79 -114 156 -191 192 l-61 28 -405 3 -405 3 -127 127 c-115
114 -128 130 -128 162 -1 66 -51 99 -110 73z m-42 -177 c45 -24 316 -307 354
-371 119 -197 128 -431 26 -645 -33 -69 -56 -100 -127 -170 -92 -91 -158 -132
-276 -172 -66 -22 -85 -23 -322 -23 l-251 0 -43 30 c-24 17 -57 50 -73 73 -27
39 -30 51 -34 140 l-4 97 100 -97 c109 -108 133 -118 177 -73 50 49 43 61
-184 289 -115 116 -214 221 -220 233 -25 48 22 113 81 113 25 0 50 -19 138
-105 118 -115 141 -125 185 -80 46 45 36 66 -90 195 -102 105 -115 121 -115
153 0 52 29 82 78 82 37 0 48 -7 120 -78 89 -86 115 -95 157 -52 40 39 32 67
-35 140 -68 74 -79 115 -37 152 51 47 90 37 167 -41 36 -37 51 -46 79 -46 19
0 43 7 53 17 24 22 23 78 -2 110 -37 48 -18 115 40 136 24 9 29 8 58 -7z
m1197 -347 c54 -15 129 -91 144 -146 8 -30 11 -271 9 -842 l-3 -799 -30 -43
c-17 -24 -50 -57 -74 -74 l-43 -30 -799 -3 c-549 -2 -813 1 -840 8 -54 15
-134 92 -148 145 -7 25 -11 148 -11 320 l0 280 258 0 c237 0 263 2 335 23 284
82 498 296 579 579 18 62 22 104 22 208 1 139 -14 219 -60 324 -13 29 -24 55
-24 57 0 10 648 3 685 -7z"/>
<path d="M471 2894 c-18 -23 -21 -41 -21 -126 0 -92 2 -101 25 -123 13 -14 36
-25 50 -25 14 0 37 11 50 25 23 22 25 31 25 123 0 85 -3 103 -21 126 -15 19
-30 26 -54 26 -24 0 -39 -7 -54 -26z"/>
<path d="M475 2445 c-23 -22 -25 -31 -25 -128 0 -95 2 -105 23 -125 31 -29 77
-29 105 1 20 21 22 34 22 126 0 95 -2 104 -25 126 -13 14 -36 25 -50 25 -14 0
-37 -11 -50 -25z"/>
<path d="M583 2030 c-26 -10 -43 -39 -43 -72 0 -33 62 -91 130 -122 70 -33 95
-33 125 0 45 49 29 93 -48 129 -29 14 -67 36 -86 50 -37 27 -44 28 -78 15z"/>
<path d="M995 1925 c-14 -13 -25 -36 -25 -50 0 -14 11 -37 25 -50 22 -23 31
-25 123 -25 85 0 103 3 126 21 19 15 26 30 26 54 0 24 -7 39 -26 54 -23 18
-41 21 -126 21 -92 0 -101 -2 -123 -25z"/>
</g>
</svg>
