<?xml version="1.0" standalone="no"?>
<!DOCTYPE svg PUBLIC "-//W3C//DTD SVG 20010904//EN"
 "http://www.w3.org/TR/2001/REC-SVG-20010904/DTD/svg10.dtd">
<svg version="1.0" xmlns="http://www.w3.org/2000/svg"
 width="254.000000pt" height="38.000000pt" viewBox="0 0 254.000000 38.000000"
 preserveAspectRatio="xMidYMid meet">

<g transform="translate(0.000000,38.000000) scale(0.100000,-0.100000)"
fill="#000000" stroke="none">
<path d="M515 358 c-3 -8 -4 -90 -3 -183 3 -168 3 -170 26 -173 l22 -3 -2 183
c-3 165 -5 183 -21 186 -9 2 -19 -3 -22 -10z"/>
<path d="M1851 352 c-91 -46 -127 -161 -81 -256 30 -62 70 -89 141 -94 75 -6
101 1 144 39 37 33 42 48 23 67 -9 9 -20 4 -49 -24 -44 -43 -97 -54 -151 -31
-44 18 -68 52 -75 106 -7 52 1 83 33 120 48 58 149 60 193 5 17 -21 23 -24 40
-14 19 10 20 13 6 33 -40 61 -153 86 -224 49z"/>
<path d="M2281 359 c-85 -34 -130 -116 -115 -209 8 -51 39 -97 83 -127 42 -28
135 -32 188 -7 132 63 123 281 -14 340 -37 16 -106 17 -142 3z m116 -44 c12
-3 36 -22 52 -41 26 -29 31 -43 31 -87 0 -65 -27 -113 -75 -133 -49 -20 -87
-18 -126 9 -78 52 -90 161 -23 224 42 39 77 46 141 28z"/>
<path d="M20 356 c0 -10 163 -321 174 -333 9 -10 32 25 99 153 48 91 87 170
87 175 0 5 -10 9 -23 9 -19 0 -33 -20 -87 -125 -43 -85 -67 -122 -74 -115 -6
6 -36 61 -67 123 -48 96 -60 112 -83 115 -14 2 -26 1 -26 -2z"/>
<path d="M1311 343 c7 -10 26 -33 41 -51 35 -41 35 -47 -2 -69 -17 -10 -40
-37 -52 -61 -18 -38 -19 -49 -9 -82 17 -58 51 -80 124 -80 46 0 70 6 102 25
l42 24 23 -24 c25 -27 60 -33 60 -12 0 8 -9 22 -20 32 -22 20 -26 45 -9 62 8
8 8 17 -1 33 -11 20 -13 20 -29 6 -10 -9 -20 -16 -24 -16 -7 0 -157 176 -157
184 0 3 34 6 75 6 41 0 75 4 75 8 0 25 -30 32 -138 32 -107 0 -114 -1 -101
-17z m162 -193 c27 -33 45 -65 41 -71 -10 -16 -69 -39 -101 -39 -53 1 -90 50
-73 96 11 29 58 74 75 73 6 0 32 -27 58 -59z"/>
<path d="M742 178 c3 -165 4 -173 23 -173 19 0 20 8 25 115 l5 115 63 -78 c35
-42 67 -77 72 -77 5 0 35 31 66 70 32 38 61 70 66 70 4 0 9 -48 10 -107 3 -93
5 -108 21 -111 16 -3 17 10 17 174 0 205 9 200 -105 61 -38 -47 -74 -83 -79
-80 -6 2 -46 47 -89 99 -43 52 -82 94 -88 94 -6 0 -8 -64 -7 -172z"/>
</g>
</svg>
